<?xml version="1.0" encoding="UTF-8" standalone="no"?>
<svg width="204px" height="84px" viewBox="0 0 204 84" version="1.1" xmlns="http://www.w3.org/2000/svg" xmlns:xlink="http://www.w3.org/1999/xlink">
    <!-- Generator: Sketch 3.7.1 (28215) - http://www.bohemiancoding.com/sketch -->
    <title>钞票</title>
    <desc>Created with Sketch.</desc>
    <defs></defs>
    <g id="Page-1" stroke="none" stroke-width="1" fill="none" fill-rule="evenodd">
        <g id="首页黑色描边" transform="translate(-410.000000, -2916.000000)">
            <g id="第四屏" transform="translate(0.000000, 2351.000000)">
                <g id="画面" transform="translate(140.000000, 369.000000)">
                    <g id="主体" transform="translate(80.000000, 0.000000)">
                        <g id="钞票" transform="translate(192.000000, 198.000000)">
                            <g id="钞票-copy-12" transform="translate(40.000000, 0.000000)">
                                <path d="M4.26325641e-14,20 C7.9279137e-16,12.9472656 0,0 0,0 L160,0 L160,0 L160,80 L0,80 C0,80 0,61.924235 4.26325641e-14,44 M6.17403376e-14,36 C5.33492687e-14,32.4794893 5.73765607e-14,30.1916744 6.17403376e-14,28" id="Rectangle-331" stroke="#313131" stroke-width="4" stroke-linecap="round" stroke-linejoin="round" fill="#20B573"></path>
                                <rect id="Rectangle-331" fill="#313131" x="10" y="38" width="38" height="4" rx="2"></rect>
                                <rect id="Rectangle-331-Copy" fill="#313131" x="112" y="38" width="38" height="4" rx="2"></rect>
                                <path d="M80,64 C93.254834,64 104,53.254834 104,40 C104,26.745166 93.254834,16 80,16 C66.745166,16 56,26.745166 56,40 C56,53.254834 66.745166,64 80,64 Z" id="Oval-109" stroke="#313131" stroke-width="4" fill="#1C9F65"></path>
                                <path d="M81.9201929,55 L78.2348313,55 C78.0491371,55 77.8884388,54.9360802 77.7527366,54.8082386 C77.6170343,54.6803971 77.5491832,54.5170463 77.5491832,54.318182 L77.5491832,47.2869335 L71.3783449,47.2869335 C71.1926473,47.2869335 71.03195,47.2230124 70.8962478,47.0951701 C70.760546,46.9673278 70.6926958,46.8039764 70.6926958,46.6051112 L70.6926958,44.4105109 C70.6926958,44.2258493 70.760546,44.0660536 70.8962478,43.9311095 C71.03195,43.7961654 71.1926473,43.7286934 71.3783449,43.7286934 L77.5491832,43.7286934 L77.5491832,41.9176151 L71.3783449,41.9176151 C71.1926473,41.9176151 71.03195,41.8536939 70.8962478,41.7258517 C70.760546,41.5980094 70.6926958,41.434658 70.6926958,41.2357928 L70.6926958,39.019887 C70.6926958,38.8352254 70.760546,38.6754249 70.8962478,38.5404808 C71.03195,38.4055367 71.1926473,38.3380695 71.3783449,38.3380695 L75.963621,38.3380695 L69.0857066,26.0227239 C68.9714311,25.7954514 68.9714311,25.5681837 69.0857066,25.3409064 C69.2285508,25.1136339 69.4285297,25 69.6856493,25 L73.8423964,25 C74.1138009,25 74.3209203,25.1278375 74.4637643,25.3835221 L79.0704651,34.4389182 C79.3418696,34.9786945 79.7418298,35.8664696 80.2703505,37.1022719 C80.4131945,36.7613608 80.6310313,36.2784132 80.9238609,35.6534103 C81.2166905,35.0284073 81.4131022,34.5951725 81.513091,34.3536916 L85.6055593,25.4048275 C85.7198316,25.1349393 85.9269558,25 86.2269272,25 L90.3193907,25 C90.5622283,25 90.7550643,25.1136339 90.8979083,25.3409064 C91.0264688,25.5397716 91.0336105,25.7599423 90.9193334,26.0014185 L84.2128332,38.3380695 L88.819534,38.3380695 C89.005233,38.3380695 89.1659313,38.4055367 89.3016335,38.5404808 C89.4373358,38.6754249 89.5051869,38.8352254 89.5051869,39.019887 L89.5051869,41.2357928 C89.5051869,41.434658 89.4373358,41.5980094 89.3016335,41.7258517 C89.1659313,41.8536939 89.005233,41.9176151 88.819534,41.9176151 L82.6058458,41.9176151 L82.6058458,43.7286934 L88.819534,43.7286934 C89.005233,43.7286934 89.1659313,43.7961654 89.3016335,43.9311095 C89.4373358,44.0660536 89.5051869,44.2258493 89.5051869,44.4105109 L89.5051869,46.6051112 C89.5051869,46.8039764 89.4373358,46.9673278 89.3016335,47.0951701 C89.1659313,47.2230124 89.005233,47.2869335 88.819534,47.2869335 L82.6058458,47.2869335 L82.6058458,54.318182 C82.6058458,54.5028417 82.5379947,54.6626413 82.4022925,54.7975852 C82.2665903,54.9325291 82.105892,55 81.9201929,55 L81.9201929,55 Z" id="Page-1" fill="#313131"></path>
                            </g>
                            <g id="钞票-copy-16" transform="translate(30.000000, 0.000000)">
                                <path d="M4.26325641e-14,20 C7.9279137e-16,12.9472656 0,0 0,0 L160,0 L160,0 L160,80 L0,80 C0,80 0,61.924235 4.26325641e-14,44 M6.17403376e-14,36 C5.33492687e-14,32.4794893 5.73765607e-14,30.1916744 6.17403376e-14,28" id="Rectangle-331" stroke="#313131" stroke-width="4" stroke-linecap="round" stroke-linejoin="round" fill="#20B573"></path>
                                <rect id="Rectangle-331" fill="#313131" x="10" y="38" width="38" height="4" rx="2"></rect>
                                <rect id="Rectangle-331-Copy" fill="#313131" x="112" y="38" width="38" height="4" rx="2"></rect>
                                <path d="M80,64 C93.254834,64 104,53.254834 104,40 C104,26.745166 93.254834,16 80,16 C66.745166,16 56,26.745166 56,40 C56,53.254834 66.745166,64 80,64 Z" id="Oval-109" stroke="#313131" stroke-width="4" fill="#1C9F65"></path>
                                <path d="M81.9201929,55 L78.2348313,55 C78.0491371,55 77.8884388,54.9360802 77.7527366,54.8082386 C77.6170343,54.6803971 77.5491832,54.5170463 77.5491832,54.318182 L77.5491832,47.2869335 L71.3783449,47.2869335 C71.1926473,47.2869335 71.03195,47.2230124 70.8962478,47.0951701 C70.760546,46.9673278 70.6926958,46.8039764 70.6926958,46.6051112 L70.6926958,44.4105109 C70.6926958,44.2258493 70.760546,44.0660536 70.8962478,43.9311095 C71.03195,43.7961654 71.1926473,43.7286934 71.3783449,43.7286934 L77.5491832,43.7286934 L77.5491832,41.9176151 L71.3783449,41.9176151 C71.1926473,41.9176151 71.03195,41.8536939 70.8962478,41.7258517 C70.760546,41.5980094 70.6926958,41.434658 70.6926958,41.2357928 L70.6926958,39.019887 C70.6926958,38.8352254 70.760546,38.6754249 70.8962478,38.5404808 C71.03195,38.4055367 71.1926473,38.3380695 71.3783449,38.3380695 L75.963621,38.3380695 L69.0857066,26.0227239 C68.9714311,25.7954514 68.9714311,25.5681837 69.0857066,25.3409064 C69.2285508,25.1136339 69.4285297,25 69.6856493,25 L73.8423964,25 C74.1138009,25 74.3209203,25.1278375 74.4637643,25.3835221 L79.0704651,34.4389182 C79.3418696,34.9786945 79.7418298,35.8664696 80.2703505,37.1022719 C80.4131945,36.7613608 80.6310313,36.2784132 80.9238609,35.6534103 C81.2166905,35.0284073 81.4131022,34.5951725 81.513091,34.3536916 L85.6055593,25.4048275 C85.7198316,25.1349393 85.9269558,25 86.2269272,25 L90.3193907,25 C90.5622283,25 90.7550643,25.1136339 90.8979083,25.3409064 C91.0264688,25.5397716 91.0336105,25.7599423 90.9193334,26.0014185 L84.2128332,38.3380695 L88.819534,38.3380695 C89.005233,38.3380695 89.1659313,38.4055367 89.3016335,38.5404808 C89.4373358,38.6754249 89.5051869,38.8352254 89.5051869,39.019887 L89.5051869,41.2357928 C89.5051869,41.434658 89.4373358,41.5980094 89.3016335,41.7258517 C89.1659313,41.8536939 89.005233,41.9176151 88.819534,41.9176151 L82.6058458,41.9176151 L82.6058458,43.7286934 L88.819534,43.7286934 C89.005233,43.7286934 89.1659313,43.7961654 89.3016335,43.9311095 C89.4373358,44.0660536 89.5051869,44.2258493 89.5051869,44.4105109 L89.5051869,46.6051112 C89.5051869,46.8039764 89.4373358,46.9673278 89.3016335,47.0951701 C89.1659313,47.2230124 89.005233,47.2869335 88.819534,47.2869335 L82.6058458,47.2869335 L82.6058458,54.318182 C82.6058458,54.5028417 82.5379947,54.6626413 82.4022925,54.7975852 C82.2665903,54.9325291 82.105892,55 81.9201929,55 L81.9201929,55 Z" id="Page-1" fill="#313131"></path>
                            </g>
                            <g id="钞票-copy-15" transform="translate(20.000000, 0.000000)">
                                <path d="M4.26325641e-14,20 C7.9279137e-16,12.9472656 0,0 0,0 L160,0 L160,0 L160,80 L0,80 C0,80 0,61.924235 4.26325641e-14,44 M6.17403376e-14,36 C5.33492687e-14,32.4794893 5.73765607e-14,30.1916744 6.17403376e-14,28" id="Rectangle-331" stroke="#313131" stroke-width="4" stroke-linecap="round" stroke-linejoin="round" fill="#20B573"></path>
                                <rect id="Rectangle-331" fill="#313131" x="10" y="38" width="38" height="4" rx="2"></rect>
                                <rect id="Rectangle-331-Copy" fill="#313131" x="112" y="38" width="38" height="4" rx="2"></rect>
                                <path d="M80,64 C93.254834,64 104,53.254834 104,40 C104,26.745166 93.254834,16 80,16 C66.745166,16 56,26.745166 56,40 C56,53.254834 66.745166,64 80,64 Z" id="Oval-109" stroke="#313131" stroke-width="4" fill="#1C9F65"></path>
                                <path d="M81.9201929,55 L78.2348313,55 C78.0491371,55 77.8884388,54.9360802 77.7527366,54.8082386 C77.6170343,54.6803971 77.5491832,54.5170463 77.5491832,54.318182 L77.5491832,47.2869335 L71.3783449,47.2869335 C71.1926473,47.2869335 71.03195,47.2230124 70.8962478,47.0951701 C70.760546,46.9673278 70.6926958,46.8039764 70.6926958,46.6051112 L70.6926958,44.4105109 C70.6926958,44.2258493 70.760546,44.0660536 70.8962478,43.9311095 C71.03195,43.7961654 71.1926473,43.7286934 71.3783449,43.7286934 L77.5491832,43.7286934 L77.5491832,41.9176151 L71.3783449,41.9176151 C71.1926473,41.9176151 71.03195,41.8536939 70.8962478,41.7258517 C70.760546,41.5980094 70.6926958,41.434658 70.6926958,41.2357928 L70.6926958,39.019887 C70.6926958,38.8352254 70.760546,38.6754249 70.8962478,38.5404808 C71.03195,38.4055367 71.1926473,38.3380695 71.3783449,38.3380695 L75.963621,38.3380695 L69.0857066,26.0227239 C68.9714311,25.7954514 68.9714311,25.5681837 69.0857066,25.3409064 C69.2285508,25.1136339 69.4285297,25 69.6856493,25 L73.8423964,25 C74.1138009,25 74.3209203,25.1278375 74.4637643,25.3835221 L79.0704651,34.4389182 C79.3418696,34.9786945 79.7418298,35.8664696 80.2703505,37.1022719 C80.4131945,36.7613608 80.6310313,36.2784132 80.9238609,35.6534103 C81.2166905,35.0284073 81.4131022,34.5951725 81.513091,34.3536916 L85.6055593,25.4048275 C85.7198316,25.1349393 85.9269558,25 86.2269272,25 L90.3193907,25 C90.5622283,25 90.7550643,25.1136339 90.8979083,25.3409064 C91.0264688,25.5397716 91.0336105,25.7599423 90.9193334,26.0014185 L84.2128332,38.3380695 L88.819534,38.3380695 C89.005233,38.3380695 89.1659313,38.4055367 89.3016335,38.5404808 C89.4373358,38.6754249 89.5051869,38.8352254 89.5051869,39.019887 L89.5051869,41.2357928 C89.5051869,41.434658 89.4373358,41.5980094 89.3016335,41.7258517 C89.1659313,41.8536939 89.005233,41.9176151 88.819534,41.9176151 L82.6058458,41.9176151 L82.6058458,43.7286934 L88.819534,43.7286934 C89.005233,43.7286934 89.1659313,43.7961654 89.3016335,43.9311095 C89.4373358,44.0660536 89.5051869,44.2258493 89.5051869,44.4105109 L89.5051869,46.6051112 C89.5051869,46.8039764 89.4373358,46.9673278 89.3016335,47.0951701 C89.1659313,47.2230124 89.005233,47.2869335 88.819534,47.2869335 L82.6058458,47.2869335 L82.6058458,54.318182 C82.6058458,54.5028417 82.5379947,54.6626413 82.4022925,54.7975852 C82.2665903,54.9325291 82.105892,55 81.9201929,55 L81.9201929,55 Z" id="Page-1" fill="#313131"></path>
                            </g>
                            <g id="钞票-copy-14" transform="translate(10.000000, 0.000000)">
                                <path d="M4.26325641e-14,20 C7.9279137e-16,12.9472656 0,0 0,0 L160,0 L160,0 L160,80 L0,80 C0,80 0,61.924235 4.26325641e-14,44 M6.17403376e-14,36 C5.33492687e-14,32.4794893 5.73765607e-14,30.1916744 6.17403376e-14,28" id="Rectangle-331" stroke="#313131" stroke-width="4" stroke-linecap="round" stroke-linejoin="round" fill="#20B573"></path>
                                <rect id="Rectangle-331" fill="#313131" x="10" y="38" width="38" height="4" rx="2"></rect>
                                <rect id="Rectangle-331-Copy" fill="#313131" x="112" y="38" width="38" height="4" rx="2"></rect>
                                <path d="M80,64 C93.254834,64 104,53.254834 104,40 C104,26.745166 93.254834,16 80,16 C66.745166,16 56,26.745166 56,40 C56,53.254834 66.745166,64 80,64 Z" id="Oval-109" stroke="#313131" stroke-width="4" fill="#1C9F65"></path>
                                <path d="M81.9201929,55 L78.2348313,55 C78.0491371,55 77.8884388,54.9360802 77.7527366,54.8082386 C77.6170343,54.6803971 77.5491832,54.5170463 77.5491832,54.318182 L77.5491832,47.2869335 L71.3783449,47.2869335 C71.1926473,47.2869335 71.03195,47.2230124 70.8962478,47.0951701 C70.760546,46.9673278 70.6926958,46.8039764 70.6926958,46.6051112 L70.6926958,44.4105109 C70.6926958,44.2258493 70.760546,44.0660536 70.8962478,43.9311095 C71.03195,43.7961654 71.1926473,43.7286934 71.3783449,43.7286934 L77.5491832,43.7286934 L77.5491832,41.9176151 L71.3783449,41.9176151 C71.1926473,41.9176151 71.03195,41.8536939 70.8962478,41.7258517 C70.760546,41.5980094 70.6926958,41.434658 70.6926958,41.2357928 L70.6926958,39.019887 C70.6926958,38.8352254 70.760546,38.6754249 70.8962478,38.5404808 C71.03195,38.4055367 71.1926473,38.3380695 71.3783449,38.3380695 L75.963621,38.3380695 L69.0857066,26.0227239 C68.9714311,25.7954514 68.9714311,25.5681837 69.0857066,25.3409064 C69.2285508,25.1136339 69.4285297,25 69.6856493,25 L73.8423964,25 C74.1138009,25 74.3209203,25.1278375 74.4637643,25.3835221 L79.0704651,34.4389182 C79.3418696,34.9786945 79.7418298,35.8664696 80.2703505,37.1022719 C80.4131945,36.7613608 80.6310313,36.2784132 80.9238609,35.6534103 C81.2166905,35.0284073 81.4131022,34.5951725 81.513091,34.3536916 L85.6055593,25.4048275 C85.7198316,25.1349393 85.9269558,25 86.2269272,25 L90.3193907,25 C90.5622283,25 90.7550643,25.1136339 90.8979083,25.3409064 C91.0264688,25.5397716 91.0336105,25.7599423 90.9193334,26.0014185 L84.2128332,38.3380695 L88.819534,38.3380695 C89.005233,38.3380695 89.1659313,38.4055367 89.3016335,38.5404808 C89.4373358,38.6754249 89.5051869,38.8352254 89.5051869,39.019887 L89.5051869,41.2357928 C89.5051869,41.434658 89.4373358,41.5980094 89.3016335,41.7258517 C89.1659313,41.8536939 89.005233,41.9176151 88.819534,41.9176151 L82.6058458,41.9176151 L82.6058458,43.7286934 L88.819534,43.7286934 C89.005233,43.7286934 89.1659313,43.7961654 89.3016335,43.9311095 C89.4373358,44.0660536 89.5051869,44.2258493 89.5051869,44.4105109 L89.5051869,46.6051112 C89.5051869,46.8039764 89.4373358,46.9673278 89.3016335,47.0951701 C89.1659313,47.2230124 89.005233,47.2869335 88.819534,47.2869335 L82.6058458,47.2869335 L82.6058458,54.318182 C82.6058458,54.5028417 82.5379947,54.6626413 82.4022925,54.7975852 C82.2665903,54.9325291 82.105892,55 81.9201929,55 L81.9201929,55 Z" id="Page-1" fill="#313131"></path>
                            </g>
                            <g id="钞票-copy-13">
                                <path d="M4.26325641e-14,20 C7.9279137e-16,12.9472656 0,0 0,0 L160,0 L160,0 L160,80 L0,80 C0,80 0,61.924235 4.26325641e-14,44 M6.17403376e-14,36 C5.33492687e-14,32.4794893 5.73765607e-14,30.1916744 6.17403376e-14,28" id="Rectangle-331" stroke="#313131" stroke-width="4" stroke-linecap="round" stroke-linejoin="round" fill="#20B573"></path>
                                <rect id="Rectangle-331" fill="#313131" x="10" y="38" width="38" height="4" rx="2"></rect>
                                <rect id="Rectangle-331-Copy" fill="#313131" x="112" y="38" width="38" height="4" rx="2"></rect>
                                <path d="M80,64 C93.254834,64 104,53.254834 104,40 C104,26.745166 93.254834,16 80,16 C66.745166,16 56,26.745166 56,40 C56,53.254834 66.745166,64 80,64 Z" id="Oval-109" stroke="#313131" stroke-width="4" fill="#1C9F65"></path>
                                <path d="M81.9201929,55 L78.2348313,55 C78.0491371,55 77.8884388,54.9360802 77.7527366,54.8082386 C77.6170343,54.6803971 77.5491832,54.5170463 77.5491832,54.318182 L77.5491832,47.2869335 L71.3783449,47.2869335 C71.1926473,47.2869335 71.03195,47.2230124 70.8962478,47.0951701 C70.760546,46.9673278 70.6926958,46.8039764 70.6926958,46.6051112 L70.6926958,44.4105109 C70.6926958,44.2258493 70.760546,44.0660536 70.8962478,43.9311095 C71.03195,43.7961654 71.1926473,43.7286934 71.3783449,43.7286934 L77.5491832,43.7286934 L77.5491832,41.9176151 L71.3783449,41.9176151 C71.1926473,41.9176151 71.03195,41.8536939 70.8962478,41.7258517 C70.760546,41.5980094 70.6926958,41.434658 70.6926958,41.2357928 L70.6926958,39.019887 C70.6926958,38.8352254 70.760546,38.6754249 70.8962478,38.5404808 C71.03195,38.4055367 71.1926473,38.3380695 71.3783449,38.3380695 L75.963621,38.3380695 L69.0857066,26.0227239 C68.9714311,25.7954514 68.9714311,25.5681837 69.0857066,25.3409064 C69.2285508,25.1136339 69.4285297,25 69.6856493,25 L73.8423964,25 C74.1138009,25 74.3209203,25.1278375 74.4637643,25.3835221 L79.0704651,34.4389182 C79.3418696,34.9786945 79.7418298,35.8664696 80.2703505,37.1022719 C80.4131945,36.7613608 80.6310313,36.2784132 80.9238609,35.6534103 C81.2166905,35.0284073 81.4131022,34.5951725 81.513091,34.3536916 L85.6055593,25.4048275 C85.7198316,25.1349393 85.9269558,25 86.2269272,25 L90.3193907,25 C90.5622283,25 90.7550643,25.1136339 90.8979083,25.3409064 C91.0264688,25.5397716 91.0336105,25.7599423 90.9193334,26.0014185 L84.2128332,38.3380695 L88.819534,38.3380695 C89.005233,38.3380695 89.1659313,38.4055367 89.3016335,38.5404808 C89.4373358,38.6754249 89.5051869,38.8352254 89.5051869,39.019887 L89.5051869,41.2357928 C89.5051869,41.434658 89.4373358,41.5980094 89.3016335,41.7258517 C89.1659313,41.8536939 89.005233,41.9176151 88.819534,41.9176151 L82.6058458,41.9176151 L82.6058458,43.7286934 L88.819534,43.7286934 C89.005233,43.7286934 89.1659313,43.7961654 89.3016335,43.9311095 C89.4373358,44.0660536 89.5051869,44.2258493 89.5051869,44.4105109 L89.5051869,46.6051112 C89.5051869,46.8039764 89.4373358,46.9673278 89.3016335,47.0951701 C89.1659313,47.2230124 89.005233,47.2869335 88.819534,47.2869335 L82.6058458,47.2869335 L82.6058458,54.318182 C82.6058458,54.5028417 82.5379947,54.6626413 82.4022925,54.7975852 C82.2665903,54.9325291 82.105892,55 81.9201929,55 L81.9201929,55 Z" id="Page-1" fill="#313131"></path>
                            </g>
                        </g>
                    </g>
                </g>
            </g>
        </g>
    </g>
</svg>