<?xml version="1.0" encoding="UTF-8" standalone="no"?>
<svg width="138px" height="221px" viewBox="0 0 138 221" version="1.1" xmlns="http://www.w3.org/2000/svg" xmlns:xlink="http://www.w3.org/1999/xlink">
    <!-- Generator: Sketch 3.8.3 (29802) - http://www.bohemiancoding.com/sketch -->
    <title>手臂</title>
    <desc>Created with Sketch.</desc>
    <defs>
        <path d="M1.23097291,40.528671 C0.929630408,39.7598454 0.76760345,38.9501509 0.732606338,38.1341164 C0.26534869,37.2812882 2.13162821e-14,36.3038911 2.13162821e-14,35.2642606 L2.13162821e-14,6.02606199 C2.13162821e-14,2.69795985 2.73382293,0 6.090876,0 C9.45477393,0 12.181752,2.69324581 12.181752,6.02606199 L12.181752,32.8572465 C12.5020888,33.1200633 12.8006139,33.4082257 13.0726227,33.7209165 L24.8953174,47.311828 L37.9274126,47.311828 L27.0935417,28.7607306 C25.1696091,25.4663346 26.3157365,21.2513065 29.6383574,19.3548387 C32.9677529,17.4545041 37.2278402,18.5870515 39.1503494,21.8790102 L53.0661765,45.7074151 C53.8997055,47.1346868 54.1569876,48.7347601 53.9106869,50.2442268 C53.9351108,50.4086682 53.9477589,50.5769591 53.9477589,50.7482527 L53.9477589,76.5635752 C53.9477589,78.4614602 52.3867087,80 50.45865,80 L15.6708609,80 C13.7438793,80 12.181752,78.4672251 12.181752,76.5635752 L12.181752,68.4677732 L1.23097291,40.528671 Z" id="path-1"></path>
        <filter x="-50%" y="-50%" width="200%" height="200%" filterUnits="objectBoundingBox" id="filter-2">
            <feOffset dx="6" dy="2" in="SourceAlpha" result="shadowOffsetInner1"></feOffset>
            <feComposite in="shadowOffsetInner1" in2="SourceAlpha" operator="arithmetic" k2="-1" k3="1" result="shadowInnerInner1"></feComposite>
            <feColorMatrix values="0 0 0 0 1   0 0 0 0 1   0 0 0 0 1  0 0 0 1 0" type="matrix" in="shadowInnerInner1"></feColorMatrix>
        </filter>
        <rect id="path-3" x="7" y="71" width="50" height="146" rx="2"></rect>
        <filter x="-50%" y="-50%" width="200%" height="200%" filterUnits="objectBoundingBox" id="filter-4">
            <feMorphology radius="2" operator="dilate" in="SourceAlpha" result="shadowSpreadOuter1"></feMorphology>
            <feOffset dx="6" dy="0" in="shadowSpreadOuter1" result="shadowOffsetOuter1"></feOffset>
            <feComposite in="shadowOffsetOuter1" in2="SourceAlpha" operator="out" result="shadowOffsetOuter1"></feComposite>
            <feColorMatrix values="0 0 0 0 0.282352941   0 0 0 0 0.490196078   0 0 0 0 0.898039216  0 0 0 1 0" type="matrix" in="shadowOffsetOuter1"></feColorMatrix>
        </filter>
        <filter x="-50%" y="-50%" width="200%" height="200%" filterUnits="objectBoundingBox" id="filter-5">
            <feOffset dx="6" dy="0" in="SourceAlpha" result="shadowOffsetInner1"></feOffset>
            <feComposite in="shadowOffsetInner1" in2="SourceAlpha" operator="arithmetic" k2="-1" k3="1" result="shadowInnerInner1"></feComposite>
            <feColorMatrix values="0 0 0 0 1   0 0 0 0 1   0 0 0 0 1  0 0 0 1 0" type="matrix" in="shadowInnerInner1"></feColorMatrix>
        </filter>
        <path d="M1.23097291,40.528671 C0.929630408,39.7598454 0.76760345,38.9501509 0.732606338,38.1341164 C0.26534869,37.2812882 -2.13162821e-14,36.3038911 -2.13162821e-14,35.2642606 L-2.13162821e-14,6.02606199 C-2.13162821e-14,2.69795985 2.73382293,0 6.090876,0 C9.45477393,0 12.181752,2.69324581 12.181752,6.02606199 L12.181752,32.8572465 C12.5020888,33.1200633 12.8006139,33.4082257 13.0726227,33.7209165 L24.8953174,47.311828 L37.9274126,47.311828 L27.0935417,28.7607306 C25.1696091,25.4663346 26.3157365,21.2513065 29.6383574,19.3548387 C32.9677529,17.4545041 37.2278402,18.5870515 39.1503494,21.8790102 L53.0661765,45.7074151 C53.8997055,47.1346868 54.1569876,48.7347601 53.9106869,50.2442268 C53.9351108,50.4086682 53.9477589,50.5769591 53.9477589,50.7482527 L53.9477589,76.5635752 C53.9477589,78.4614602 52.3867087,80 50.45865,80 L15.6708609,80 C13.7438793,80 12.181752,78.4672251 12.181752,76.5635752 L12.181752,68.4677732 L1.23097291,40.528671 Z" id="path-6"></path>
        <filter x="-50%" y="-50%" width="200%" height="200%" filterUnits="objectBoundingBox" id="filter-7">
            <feOffset dx="-6" dy="2" in="SourceAlpha" result="shadowOffsetInner1"></feOffset>
            <feComposite in="shadowOffsetInner1" in2="SourceAlpha" operator="arithmetic" k2="-1" k3="1" result="shadowInnerInner1"></feComposite>
            <feColorMatrix values="0 0 0 0 1   0 0 0 0 1   0 0 0 0 1  0 0 0 1 0" type="matrix" in="shadowInnerInner1"></feColorMatrix>
        </filter>
        <path d="M7,127 L7,119 L7,111 L7,103 L7,72.9982464 C7,71.8946454 7.88906428,71 8.99091407,71 L55.0090859,71 C56.1086374,71 57,71.8944857 57,73.0083403 L57,214.99166 C57,216.100835 56.1109357,217 55.0090859,217 L8.99091407,217 C7.89136259,217 7,216.108433 7,214.996394 L7,127 Z" id="path-8"></path>
        <filter x="-50%" y="-50%" width="200%" height="200%" filterUnits="objectBoundingBox" id="filter-9">
            <feOffset dx="-6" dy="0" in="SourceAlpha" result="shadowOffsetOuter1"></feOffset>
            <feColorMatrix values="0 0 0 0 0.282352941   0 0 0 0 0.490196078   0 0 0 0 0.898039216  0 0 0 1 0" type="matrix" in="shadowOffsetOuter1"></feColorMatrix>
        </filter>
        <filter x="-50%" y="-50%" width="200%" height="200%" filterUnits="objectBoundingBox" id="filter-10">
            <feOffset dx="-6" dy="0" in="SourceAlpha" result="shadowOffsetInner1"></feOffset>
            <feComposite in="shadowOffsetInner1" in2="SourceAlpha" operator="arithmetic" k2="-1" k3="1" result="shadowInnerInner1"></feComposite>
            <feColorMatrix values="0 0 0 0 1   0 0 0 0 1   0 0 0 0 1  0 0 0 1 0" type="matrix" in="shadowInnerInner1"></feColorMatrix>
        </filter>
    </defs>
    <g id="首页" stroke="none" stroke-width="1" fill="none" fill-rule="evenodd">
        <g transform="translate(-802.000000, -2029.000000)" id="第三屏">
            <g transform="translate(0.000000, 1601.000000)">
                <g id="画面" transform="translate(740.000000, 339.000000)">
                    <g id="主要内容" transform="translate(64.000000, 0.000000)">
                        <g id="手臂" transform="translate(0.000000, 91.000000)">
                            <g id="左手">
                                <g id="手掌填充">
                                    <use fill="#FFEEDC" fill-rule="evenodd" xlink:href="#path-1"></use>
                                    <use fill="black" fill-opacity="1" filter="url(#filter-2)" xlink:href="#path-1"></use>
                                </g>
                                <path d="M4.61742766,49.1686504 C3.48860941,46.2886572 1.23097291,40.528671 1.23097291,40.528671 C0.929630408,39.7598454 0.76760345,38.9501509 0.732606338,38.1341164 C0.26534869,37.2812882 0,36.3038911 0,35.2642606 L0,6.02606199 C0,2.69795985 2.73382293,0 6.090876,0 C9.45477393,0 12.181752,2.69324581 12.181752,6.02606199 L12.181752,32.8572465 C12.5020888,33.1200633 12.8006139,33.4082257 13.0726227,33.7209165 L24.8953174,47.311828 L37.9274126,47.311828 L27.0935417,28.7607306 C25.1696091,25.4663346 26.3157365,21.2513065 29.6383574,19.3548387 C32.9677529,17.4545041 37.2278402,18.5870515 39.1503494,21.8790102 L53.0661765,45.7074151 C53.8997055,47.1346868 54.1569876,48.7347601 53.9106869,50.2442268 C53.9351108,50.4086682 53.9477589,50.5769591 53.9477589,50.7482527 L53.9477589,76.5635752 C53.9477589,78.4614602 52.3867087,80 50.45865,80 L15.6708609,80 C13.7438793,80 12.181752,78.4672251 12.181752,76.5635752 L12.181752,68.4677732 C12.181752,68.4677732 9.80199602,62.3962193 7.4946534,56.5094161 L7.4946534,56.5094161" id="手掌路径" stroke="#313131" stroke-width="4" stroke-linecap="round" stroke-linejoin="round"></path>
                                <g id="手臂">
                                    <use fill="black" fill-opacity="1" filter="url(#filter-4)" xlink:href="#path-3"></use>
                                    <use fill="#487DE5" fill-rule="evenodd" xlink:href="#path-3"></use>
                                    <use fill="black" fill-opacity="1" filter="url(#filter-5)" xlink:href="#path-3"></use>
                                    <use stroke="#313131" stroke-width="4" stroke-linecap="round" stroke-linejoin="round" xlink:href="#path-3"></use>
                                </g>
                            </g>
                            <g id="右手" transform="translate(105.500000, 108.500000) scale(-1, 1) translate(-105.500000, -108.500000) translate(77.000000, 0.000000)">
                                <g id="手掌">
                                    <use fill="#FFEEDC" fill-rule="evenodd" xlink:href="#path-6"></use>
                                    <use fill="black" fill-opacity="1" filter="url(#filter-7)" xlink:href="#path-6"></use>
                                    <use stroke="#313131" stroke-width="4" stroke-linecap="round" stroke-linejoin="round" xlink:href="#path-6"></use>
                                </g>
                                <g id="手臂填充">
                                    <use fill="black" fill-opacity="1" filter="url(#filter-9)" xlink:href="#path-8"></use>
                                    <use fill="#487DE5" fill-rule="evenodd" xlink:href="#path-8"></use>
                                    <use fill="black" fill-opacity="1" filter="url(#filter-10)" xlink:href="#path-8"></use>
                                </g>
                                <path d="M7,143 L7,72.9955563 C7,71.893441 7.88906428,71 8.99091407,71 L55.0090859,71 C56.1086374,71 57,71.8944857 57,73.0083403 L57,214.99166 C57,216.100835 56.1109357,217 55.0090859,217 L8.99091407,217 C7.89136259,217 7,216.108421 7,214.998644 L7,167 L7,187 M7,159 L7,151" id="手臂路径" stroke="#313131" stroke-width="4" stroke-linecap="round" stroke-linejoin="round"></path>
                            </g>
                        </g>
                    </g>
                </g>
            </g>
        </g>
    </g>
</svg>